# xmcd
#
# Track frame offsets:
#	150
#	18765
#	39260
#	54622
#	73057
#	89050
#	107287
#	126532
#	146005
#	164682
#	181717
#	197245
#
# Disc length: 2855 seconds
#
# Revision: 1
# Processed by: cddbd v1.5.2PL0 Copyright (c) Steve Scherf et al.
# Submitted via: audiograbber 1.83.01
#
DISCID=a90b250c
DTITLE=CatCat - Enkeli
DYEAR=1995
DGENRE=Dance
TTITLE0=Enkeli
TTITLE1=Jos Vain Voisin
TTITLE2=Minä Sekä Hän (Robert And Marie)
TTITLE3=Eilinen
TTITLE4=Kyyneleet
TTITLE5=Piirtelet Mun Sydämeen (Jimmy Dean)
TTITLE6=Tee Päivistäni Yöt
TTITLE7=Vanhat Kirjeet
TTITLE8=Kristallipallo
TTITLE9=Suuri Satu
TTITLE10=Hän Mulle Hymyilee
TTITLE11=Kyyneleet (Remix)
EXTD=TR.
EXTT0=
EXTT1=
EXTT2=
EXTT3=
EXTT4=
EXTT5=
EXTT6=
EXTT7=
EXTT8=
EXTT9=
EXTT10=
EXTT11=
PLAYORDER=
